#!OML:ASF C:\Vicon Data\Big\jianyuan-11\jianyuan\Session 1\male.ASF
:FULLY-SPECIFIED
:DEGREES
112
root -10.529829 16.286642 -14.786419 -7.947944 -34.547878 7.842338
lowerback 0.983990 5.632434 2.286156 
upperback 5.188224 7.660333 -0.432327 
thorax 5.182437 3.986985 -1.412130 
lowerneck -11.361850 -9.284127 -11.831433 
upperneck 23.477870 -12.562568 10.895790 
head 10.915274 -5.400439 4.225937 
rclavicle 0.000000 0.000000 
rhumerus -32.564068 -17.351547 -84.635963 
rradius 49.336102 
rwrist -8.094082 
rhand -16.783626 0.128280 
rfingers 0.000000 
rthumb 9.444118 -29.640097 
lclavicle 0.000000 0.000000 
lhumerus -80.167833 53.617244 16.465048 
lradius 18.178105 
lwrist -62.275430 
lhand -11.172733 -9.257650 
lfingers 0.000000 
lthumb 14.854106 20.189922 
rfemur 18.138251 7.182091 32.259965 
rtibia 19.574976 
rfoot 1.129504 -1.077697 
rtoes 20.837621 
lfemur -24.142783 -0.509336 -21.470679 
ltibia 16.511103 
lfoot -6.598919 -2.092297 
ltoes -15.254056 
113
root -10.572752 16.278705 -14.700593 -7.996518 -34.774936 7.907695
lowerback 0.932585 5.675980 2.241974 
upperback 5.193872 7.717454 -0.424663 
thorax 5.213193 4.012956 -1.371693 
lowerneck -11.532274 -9.308526 -11.819000 
upperneck 23.652918 -12.560697 10.751602 
head 11.002117 -5.404596 4.167922 
rclavicle 0.000000 0.000000 
rhumerus -32.624329 -17.399314 -84.535648 
rradius 49.185504 
rwrist -7.937282 
rhand -16.788458 0.222925 
rfingers 0.000000 
rthumb 9.439444 -29.545650 
lclavicle 0.000000 0.000000 
lhumerus -80.920575 53.649428 15.600292 
lradius 18.185077 
lwrist -62.647182 
lhand -11.300278 -9.278975 
lfingers 0.000000 
lthumb 14.731189 20.177598 
rfemur 18.355591 7.103499 32.092758 
rtibia 19.814239 
rfoot 1.521583 -0.873033 
rtoes 20.330974 
lfemur -24.145964 -0.256004 -21.801885 
ltibia 16.753328 
lfoot -6.896533 -1.954093 
ltoes -14.113540 
114
root -10.619497 16.272128 -14.616265 -7.874258 -35.125628 7.802119
lowerback 0.841431 5.774124 2.339092 
upperback 5.134510 7.839893 -0.413636 
thorax 5.220479 4.074878 -1.400274 
lowerneck -11.421207 -9.308660 -11.856445 
upperneck 23.552575 -12.590329 10.885219 
head 10.959732 -5.412658 4.220833 
rclavicle 0.000000 0.000000 
rhumerus -32.738349 -17.423246 -84.461877 
rradius 49.067691 
rwrist -8.000093 
rhand -16.790701 0.187000 
rfingers 0.000000 
rthumb 9.437294 -29.581671 
lclavicle 0.000000 0.000000 
lhumerus -80.913269 53.478666 15.586652 
lradius 18.221908 
lwrist -62.684509 
lhand -11.357364 -9.205174 
lfingers 0.000000 
lthumb 14.676231 20.255403 
rfemur 18.462129 7.157667 32.106896 
rtibia 20.089919 
rfoot 1.933967 -0.809745 
rtoes 20.959895 
lfemur -24.230841 0.119610 -21.925152 
ltibia 17.047574 
lfoot -7.077692 -1.782620 
ltoes -13.810183 
115
root -10.666974 16.265750 -14.530862 -7.809653 -35.411205 7.666301
lowerback 0.798379 5.836448 2.437221 
upperback 5.109870 7.916114 -0.368180 
thorax 5.229885 4.114424 -1.399568 
lowerneck -11.183413 -9.328447 -12.039293 
upperneck 23.354500 -12.653805 11.143853 
head 10.881573 -5.442576 4.340590 
rclavicle 0.000000 0.000000 
rhumerus -32.868932 -17.422658 -84.385676 
rradius 49.001031 
rwrist -8.191205 
rhand -16.714420 0.124766 
rfingers 0.000000 
rthumb 9.510925 -29.640558 
lclavicle 0.000000 0.000000 
lhumerus -81.764290 53.543890 14.523138 
lradius 18.177317 
lwrist -63.264584 
lhand -11.447224 -9.170384 
lfingers 0.000000 
lthumb 14.589668 20.296460 
rfemur 18.613632 7.140079 32.157327 
rtibia 20.430251 
rfoot 2.360161 -0.726109 
rtoes 21.036725 
lfemur -24.201481 0.342650 -22.005873 
ltibia 17.368666 
lfoot -7.280073 -1.542152 
ltoes -14.757332 
116
root -10.714356 16.255153 -14.444860 -7.769852 -35.653968 7.629195
lowerback 0.722561 5.885529 2.429888 
upperback 5.092284 7.976711 -0.336571 
thorax 5.251674 4.142021 -1.352832 
lowerneck -11.204698 -9.345999 -12.038955 
upperneck 23.393715 -12.665947 11.086279 
head 10.897652 -5.452992 4.317134 
rclavicle 0.000000 0.000000 
rhumerus -32.946775 -17.488473 -84.288926 
rradius 48.856480 
rwrist -8.217027 
rhand -16.690387 0.140893 
rfingers 0.000000 
rthumb 9.534118 -29.623409 
lclavicle 0.000000 0.000000 
lhumerus -82.620502 53.640182 13.502969 
lradius 18.162327 
lwrist -63.716741 
lhand -11.570636 -9.126788 
lfingers 0.000000 
lthumb 14.470742 20.348601 
rfemur 18.728444 7.106445 32.109387 
rtibia 20.803221 
rfoot 2.830388 -0.623798 
rtoes 21.448188 
lfemur -24.209939 0.419301 -22.155014 
ltibia 17.749007 
lfoot -7.527913 -1.356528 
ltoes -14.232764 
117
root -10.764917 16.246032 -14.357049 -7.690230 -35.949895 7.643667
lowerback 0.568881 5.967931 2.383123 
upperback 5.038796 8.080446 -0.346204 
thorax 5.282359 4.188794 -1.318062 
lowerneck -11.312600 -9.334832 -11.983935 
upperneck 23.509036 -12.649641 11.049069 
head 10.952428 -5.437264 4.295817 
rclavicle 0.000000 0.000000 
rhumerus -33.061472 -17.624062 -84.201257 
rradius 48.644659 
rwrist -7.976356 
rhand -16.763782 0.185960 
rfingers 0.000000 
rthumb 9.463276 -29.581583 
lclavicle 0.000000 0.000000 
lhumerus -82.879776 53.598972 13.183158 
lradius 18.186999 
lwrist -63.784085 
lhand -11.640773 -9.071264 
lfingers 0.000000 
lthumb 14.403157 20.408954 
rfemur 18.747633 7.128548 31.995301 
rtibia 21.220007 
rfoot 3.288092 -0.564752 
rtoes 22.468687 
lfemur -24.277618 0.573703 -22.331390 
ltibia 18.159179 
lfoot -7.715989 -1.257143 
ltoes -13.407062 
118
root -10.816760 16.239607 -14.268836 -7.612915 -36.268498 7.645898
lowerback 0.428711 6.042573 2.345300 
upperback 4.980027 8.173572 -0.349798 
thorax 5.299507 4.230407 -1.284312 
lowerneck -11.224866 -9.334523 -12.068761 
upperneck 23.456715 -12.672795 11.197434 
head 10.936671 -5.442870 4.363095 
rclavicle 0.000000 0.000000 
rhumerus -33.212877 -17.645152 -84.118705 
rradius 48.456534 
rwrist -7.788853 
rhand -16.778510 0.148709 
rfingers 0.000000 
rthumb 9.449032 -29.619481 
lclavicle 0.000000 0.000000 
lhumerus -83.386822 53.597707 12.532694 
lradius 18.156548 
lwrist -64.074091 
lhand -11.762929 -9.032376 
lfingers 0.000000 
lthumb 14.285431 20.456164 
rfemur 18.706140 7.161200 31.881170 
rtibia 21.759253 
rfoot 3.688896 -0.519852 
rtoes 23.391142 
lfemur -24.268423 0.747071 -22.477487 
ltibia 18.520104 
lfoot -7.845583 -1.125735 
ltoes -13.447826 
119
root -10.868534 16.231605 -14.181424 -7.583570 -36.581883 7.644490
lowerback 0.339262 6.107152 2.304323 
upperback 4.948002 8.255740 -0.340027 
thorax 5.312965 4.267298 -1.239641 
lowerneck -11.109376 -9.358319 -12.116593 
upperneck 23.370910 -12.719514 11.265185 
head 10.897375 -5.467534 4.390650 
rclavicle 0.000000 0.000000 
rhumerus -33.325021 -17.605202 -84.039285 
rradius 48.274817 
rwrist -7.794936 
rhand -16.737540 0.099877 
rfingers 0.000000 
rthumb 9.488572 -29.666510 
lclavicle 0.000000 0.000000 
lhumerus -84.144588 53.645575 11.569558 
lradius 18.127136 
lwrist -64.568616 
lhand -11.876223 -9.086777 
lfingers 0.000000 
lthumb 14.176264 20.409496 
rfemur 18.681730 7.168697 31.782540 
rtibia 22.376131 
rfoot 4.122708 -0.411227 
rtoes 23.572460 
lfemur -24.185317 0.853162 -22.594430 
ltibia 18.888799 
lfoot -7.962045 -0.964520 
ltoes -13.403816 
120
root -10.923699 16.225562 -14.092384 -7.596647 -36.898809 7.620548
lowerback 0.247621 6.192941 2.274177 
upperback 4.942555 8.367627 -0.329838 
thorax 5.358553 4.320393 -1.196150 
lowerneck -11.171842 -9.369443 -12.097132 
upperneck 23.443276 -12.742083 11.279892 
head 10.939411 -5.469743 4.388668 
rclavicle 0.000000 0.000000 
rhumerus -33.450744 -17.723287 -83.960644 
rradius 48.040917 
rwrist -7.582879 
rhand -16.778760 0.195017 
rfingers 0.000000 
rthumb 9.448839 -29.573145 
lclavicle 0.000000 0.000000 
lhumerus -84.642843 53.673965 10.906963 
lradius 18.128731 
lwrist -64.963691 
lhand -11.940048 -9.120150 
lfingers 0.000000 
lthumb 14.114786 20.380323 
rfemur 18.731370 7.136725 31.709083 
rtibia 22.946620 
rfoot 4.629689 -0.261541 
rtoes 22.773269 
lfemur -24.081747 0.978532 -22.678409 
ltibia 19.367544 
lfoot -8.042606 -0.893416 
ltoes -13.560355 
121
root -10.979671 16.219935 -14.004166 -7.517743 -37.221347 7.525335
lowerback 0.111709 6.281835 2.271791 
upperback 4.926985 8.479782 -0.293523 
thorax 5.418557 4.373337 -1.135823 
lowerneck -11.374198 -9.379395 -11.927124 
upperneck 23.630114 -12.734104 11.067999 
head 11.018337 -5.462149 4.280296 
rclavicle 0.000000 0.000000 
rhumerus -33.576744 -17.892805 -83.822352 
rradius 47.779115 
rwrist -7.239077 
rhand -16.796631 0.288931 
rfingers 0.000000 
rthumb 9.431579 -29.480018 
lclavicle 0.000000 0.000000 
lhumerus -84.985803 53.724357 10.462470 
lradius 18.087469 
lwrist -65.325742 
lhand -12.288243 -8.826232 
lfingers 0.000000 
lthumb 13.779201 20.697410 
rfemur 18.718915 7.086462 31.661944 
rtibia 23.486302 
rfoot 5.175830 -0.173621 
rtoes 22.545752 
lfemur -24.045335 1.047972 -22.673452 
ltibia 19.903804 
lfoot -8.125266 -0.832907 
ltoes -13.794224 
